<?xml version="1.0" encoding="utf-8"?>
<!-- Generator: Adobe Illustrator 18.0.0, SVG Export Plug-In . SVG Version: 6.00 Build 0)  -->
<!DOCTYPE svg PUBLIC "-//W3C//DTD SVG 1.1//EN" "http://www.w3.org/Graphics/SVG/1.1/DTD/svg11.dtd">
<svg version="1.1" id="Layer_1" xmlns="http://www.w3.org/2000/svg" xmlns:xlink="http://www.w3.org/1999/xlink" x="0px" y="0px"
	 viewBox="0 0 841.9 170.7" enable-background="new 0 0 841.9 170.7" xml:space="preserve">
<g>
	<path style="fill:#ffffff;" d="M771.7,73c0-6,4.6-10.9,10.4-10.9c5.7,0,10.4,4.9,10.4,10.9c0,6.1-4.7,11-10.4,11C776.3,84,771.7,79.1,771.7,73 M789.7,73
		c0-4.9-3.2-8.4-7.6-8.4c-4.5,0-7.6,3.5-7.6,8.4c0,4.9,3.1,8.4,7.6,8.4C786.5,81.4,789.7,78,789.7,73 M787.2,79h-2.7l-2.5-5h-1.9v5
		h-2.4V67.1h5.4c2.9,0,4.4,0.8,4.4,3.6c0,2.2-1.1,3.1-3.1,3.2L787.2,79z M783.3,72.2c1.3,0,2.1-0.3,2.1-1.7c0-1.6-1.6-1.5-2.7-1.5
		h-2.5v3.2H783.3z"/>
	<polygon style="fill:#ffffff;" points="120.3,51.2 96.3,51.2 96.3,132.2 77.8,132.2 77.8,51.2 53.9,51.2 53.9,34.7 120.3,34.7 	"/>
	<path style="fill:#ffffff;" d="M144.7,69.3c5.6-4.9,12.4-8.8,19.8-8.8c7.2,0,17.4,4.6,17.4,21.9v49.8h-17.5V89.9c0-5.6,0.4-14.5-7.2-14.5
		c-5.1,0-9.1,3.9-12.4,7.6v49.1h-17.5V34.7h17.5V69.3"/>
	<path style="fill:#ffffff;" d="M189.2,97.1c0-18.7,9.7-36.6,29.1-36.6c19.4,0,29.1,17.9,29.1,36.6c0,18.6-9.8,36.6-29.1,36.6
		C199,133.7,189.2,115.6,189.2,97.1 M229.4,97.1c0-8.7-1.7-22.9-11.1-22.9c-9.5,0-11.1,14.2-11.1,22.9c0,8.8,1.7,22.9,11.1,22.9
		C227.8,120,229.4,105.9,229.4,97.1"/>
	<path style="fill:#ffffff;" d="M292.3,124.9c-5.6,4.9-12.4,8.8-19.8,8.8c-7.2,0-17.4-4.6-17.4-21.9V62h17.5v42.2c0,5.6-0.3,14.5,7.2,14.5
		c5.1,0,9.1-3.9,12.4-7.6V62h17.5v70.2h-17.5V124.9"/>
	<path style="fill:#ffffff;" d="M338.5,109.1c-2,0-5,1.1-5,4.4c0,9.1,46-6.8,46,20.7c0,10.4-6.6,21.4-32.9,21.4c-22.9,0-30.7-8.5-30.7-17.7
		c0-5.4,3.2-8.1,7.2-10.6c-2.9-2.3-5.2-4.9-5.2-8.9c0-6.9,3.5-10.5,8.7-14c-4.9-5-8.3-11.3-8.3-19.3c0-15.5,12.4-24.6,26.7-24.6
		c5.8,0,11.4,1.8,16.3,4.9c3.6-3.5,6.7-5.7,12-5.7c1.7,0,3.4,0.1,5.1,0.5v13c-1.8-0.8-3.7-1.5-5.6-1.5c-1.9,0-3.1,0.6-4.7,1.5
		c1.9,3.8,3.4,7.9,3.6,11.9c0,15.5-12.3,24.6-26.7,24.6L338.5,109.1 M332.9,132.3c-1.6,1.1-2.7,2.1-2.7,4.4c0,6.5,12.4,6.9,16.6,6.9
		c3,0,18.4-0.4,18.4-6c0-3.6-2.4-3.3-12.8-3.9L332.9,132.3z M345,97.3c7.3,0,9.5-6.4,9.5-13c0-6.4-2.8-11.8-9.5-11.8
		c-7.3,0-9.6,6.5-9.6,13.2C335.4,92.1,338.3,97.3,345,97.3"/>
	<path style="fill:#ffffff;" d="M403.5,69.3c5.6-4.9,12.4-8.8,19.8-8.8c7.2,0,17.4,4.6,17.4,21.9v49.8h-17.5V89.9c0-5.6,0.4-14.5-7.2-14.5
		c-5.1,0-9.1,3.9-12.4,7.6v49.1H386V34.7h17.5V69.3"/>
	<path style="fill:#ffffff;" d="M472.6,62h13.6v15.4h-13.6v35.7c0,3.4,0.9,6.9,6.6,6.9c3,0,4.9-1.3,7-2.6v14.2c-3.7,1.1-7.5,2.1-11.3,2.1
		c-10.9,0-19.9-6.5-19.9-21.8V77.4h-8.2V62h8.2V44.5h17.5V62"/>
	<polygon style="fill:#ffffff;" points="559.1,132.2 549.7,132.2 534,52.5 533.8,52.5 517.3,132.2 507.9,132.2 488.5,34.7 497.8,34.7 512.9,113.4 
		513.2,113.4 529.8,34.7 538.9,34.7 554.6,113.4 554.9,113.4 571.1,34.7 580.2,34.7 	"/>
	<path style="fill:#ffffff;" d="M576.2,97.6c0-25.9,11.6-36.6,26.2-36.6c14.6,0,26.2,10.7,26.2,36.6c0,25.9-11.6,36.6-26.2,36.6
		C587.8,134.2,576.2,123.5,576.2,97.6 M619.3,97.6c0-11.8-2.7-28.3-16.9-28.3c-14.2,0-16.9,16.5-16.9,28.3
		c0,11.8,2.7,28.3,16.9,28.3C616.6,125.9,619.3,109.4,619.3,97.6"/>
	<path style="fill:#ffffff;" d="M645,77.9h0.2c3.7-8.3,8.4-15.9,18.1-15.9h3.6v8.9c-12.1-1.8-18.4,12-21.9,22.1v39.2h-9.2V63h9.2V77.9"/>
	<polygon style="fill:#ffffff;" points="683.6,95.1 707.9,63 718.2,63 700.2,86.7 720.9,132.2 711,132.2 694.2,94.6 683.6,108.5 683.6,132.2 674.4,132.2 
		674.4,34.7 683.6,34.7 	"/>
	<path style="fill:#ffffff;" d="M760.9,78.4c-3.7-5.8-8-9.2-14.9-9.2c-6,0-11.7,3.2-11.7,10.3c0,16.9,34.5,9.5,34.5,32.8c0,13.5-9.1,21.8-21.4,21.8
		c-10.5,0-19.1-4.9-24.4-14.6l7.4-4.9c3.5,7.1,9.2,11.2,17,11.2c6.8,0,12.8-3.9,12.8-11.8c0-17.4-34.5-9.2-34.5-34
		c0-11.9,9.2-19.2,20-19.2c9.1,0,16.7,4,21.8,12L760.9,78.4"/>
</g>
</svg>
